STARTFONT 2.1
COMMENT  
COMMENT  Copyright (c) 1984, 1987 Adobe Systems Incorporated. All Rights Reserved. Copyright (c) 1988, 1991 Digital Equipment Corporation. All Rights Reserved.
COMMENT  
COMMENT  WARNING:  This bdf file was generated from a font server using
COMMENT  fstobdf.  The resulting font is subject to the same copyright,
COMMENT  license, and trademark restrictions as the original font.  The
COMMENT  authors and distributors of fstobdf disclaim all liability for
COMMENT  misuse of the program or its output.
COMMENT  
FONT -Adobe-Helvetica-Bold-R-Normal--14-140-75-75-P-82-ISO8859-1
SIZE 14 75 75
FONTBOUNDINGBOX 14 17 0 -3
STARTPROPERTIES 32
FOUNDRY "Adobe"
FAMILY_NAME "Helvetica"
WEIGHT_NAME "Bold"
SLANT "R"
SETWIDTH_NAME "Normal"
ADD_STYLE_NAME ""
PIXEL_SIZE 14
POINT_SIZE 140
RESOLUTION_X 75
RESOLUTION_Y 75
SPACING "P"
AVERAGE_WIDTH 82
CHARSET_REGISTRY "ISO8859"
CHARSET_ENCODING "1"
CAP_HEIGHT 11
X_HEIGHT 8
FACE_NAME "Helvetica Bold"
COPYRIGHT "Copyright (c) 1984, 1987 Adobe Systems Incorporated. All Rights Reserved. Copyright (c) 1988, 1991 Digital Equipment Corporation. All Rights Reserved."
NOTICE "Helvetica is a trademark of Linotype-Hell AG and/or its subsidiaries.  "
_DEC_DEVICE_FONTNAMES "PS=Helvetica-Bold"
_DEC_PRODUCTINFO "DECwindows Fonts V2.2, 07-Nov-1991"
RELATIVE_SETWIDTH 50
RELATIVE_WEIGHT 70
CHARSET_COLLECTIONS "ASCII ISO8859-1 ADOBE-STANDARD"
FULL_NAME "Helvetica Bold"
FONT "-Adobe-Helvetica-Bold-R-Normal--14-140-75-75-P-82-ISO8859-1"
WEIGHT 10
RESOLUTION 103
QUAD_WIDTH 9
DEFAULT_CHAR 32
FONT_ASCENT 13
FONT_DESCENT 3
ENDPROPERTIES
CHARS 191
STARTCHAR space
ENCODING 32
SWIDTH 274 0
DWIDTH 4 0
BBX 1 1 0 0
BITMAP
00
ENDCHAR
STARTCHAR exclam
ENCODING 33
SWIDTH 274 0
DWIDTH 4 0
BBX 2 11 1 0
BITMAP
c0
c0
c0
c0
c0
c0
80
80
00
c0
c0
ENDCHAR
STARTCHAR quotedbl
ENCODING 34
SWIDTH 480 0
DWIDTH 7 0
BBX 5 3 1 8
BITMAP
d8
d8
90
ENDCHAR
STARTCHAR numbersign
ENCODING 35
SWIDTH 617 0
DWIDTH 9 0
BBX 9 10 0 0
BITMAP
1b00
1b00
1b00
7f80
3600
3600
ff00
6c00
6c00
6c00
ENDCHAR
STARTCHAR dollar
ENCODING 36
SWIDTH 548 0
DWIDTH 8 0
BBX 7 13 0 -2
BITMAP
10
7c
d6
d6
f0
78
1c
16
d6
d6
7c
10
10
ENDCHAR
STARTCHAR percent
ENCODING 37
SWIDTH 891 0
DWIDTH 13 0
BBX 12 10 0 0
BITMAP
7880
cd80
cd00
7b00
0600
0400
0de0
0b30
1b30
11e0
ENDCHAR
STARTCHAR ampersand
ENCODING 38
SWIDTH 754 0
DWIDTH 11 0
BBX 9 10 1 0
BITMAP
3800
6c00
6c00
3800
7300
fb00
ce00
c600
cf00
7d80
ENDCHAR
STARTCHAR apostrophe
ENCODING 39
SWIDTH 342 0
DWIDTH 5 0
BBX 3 3 1 8
BITMAP
e0
60
c0
ENDCHAR
STARTCHAR parenleft
ENCODING 40
SWIDTH 342 0
DWIDTH 5 0
BBX 4 14 0 -3
BITMAP
30
60
60
c0
c0
c0
c0
c0
c0
c0
c0
60
60
30
ENDCHAR
STARTCHAR parenright
ENCODING 41
SWIDTH 342 0
DWIDTH 5 0
BBX 4 14 1 -3
BITMAP
c0
60
60
30
30
30
30
30
30
30
30
60
60
c0
ENDCHAR
STARTCHAR asterisk
ENCODING 42
SWIDTH 411 0
DWIDTH 6 0
BBX 5 4 0 7
BITMAP
20
f8
70
d8
ENDCHAR
STARTCHAR plus
ENCODING 43
SWIDTH 617 0
DWIDTH 9 0
BBX 8 7 0 1
BITMAP
18
18
18
ff
18
18
18
ENDCHAR
STARTCHAR comma
ENCODING 44
SWIDTH 274 0
DWIDTH 4 0
BBX 3 3 0 -1
BITMAP
60
60
c0
ENDCHAR
STARTCHAR minus
ENCODING 45
SWIDTH 617 0
DWIDTH 9 0
BBX 7 1 1 4
BITMAP
fe
ENDCHAR
STARTCHAR period
ENCODING 46
SWIDTH 274 0
DWIDTH 4 0
BBX 2 2 1 0
BITMAP
c0
c0
ENDCHAR
STARTCHAR slash
ENCODING 47
SWIDTH 274 0
DWIDTH 4 0
BBX 4 11 0 0
BITMAP
30
30
20
20
60
60
60
40
40
c0
c0
ENDCHAR
STARTCHAR 0
ENCODING 48
SWIDTH 548 0
DWIDTH 8 0
BBX 7 10 0 0
BITMAP
38
6c
c6
c6
c6
c6
c6
c6
6c
38
ENDCHAR
STARTCHAR 1
ENCODING 49
SWIDTH 548 0
DWIDTH 8 0
BBX 4 10 1 0
BITMAP
30
f0
30
30
30
30
30
30
30
30
ENDCHAR
STARTCHAR 2
ENCODING 50
SWIDTH 548 0
DWIDTH 8 0
BBX 7 10 0 0
BITMAP
7c
e6
c6
0e
0c
38
70
e0
c0
fe
ENDCHAR
STARTCHAR 3
ENCODING 51
SWIDTH 548 0
DWIDTH 8 0
BBX 7 10 0 0
BITMAP
7c
ce
c6
06
3c
06
06
c6
ce
7c
ENDCHAR
STARTCHAR 4
ENCODING 52
SWIDTH 548 0
DWIDTH 8 0
BBX 8 10 0 0
BITMAP
0e
1e
36
66
c6
c6
ff
06
06
06
ENDCHAR
STARTCHAR 5
ENCODING 53
SWIDTH 548 0
DWIDTH 8 0
BBX 7 10 0 0
BITMAP
7e
60
c0
f8
1c
06
06
c6
ec
78
ENDCHAR
STARTCHAR 6
ENCODING 54
SWIDTH 548 0
DWIDTH 8 0
BBX 7 10 0 0
BITMAP
3c
76
66
c0
dc
f6
c6
c6
6e
3c
ENDCHAR
STARTCHAR 7
ENCODING 55
SWIDTH 548 0
DWIDTH 8 0
BBX 7 10 0 0
BITMAP
fe
06
0c
0c
18
18
30
30
60
60
ENDCHAR
STARTCHAR 8
ENCODING 56
SWIDTH 548 0
DWIDTH 8 0
BBX 7 10 0 0
BITMAP
7c
ee
c6
c6
7c
ee
c6
c6
c6
7c
ENDCHAR
STARTCHAR 9
ENCODING 57
SWIDTH 548 0
DWIDTH 8 0
BBX 7 10 0 0
BITMAP
7c
ee
c6
c6
e6
7e
06
c6
ce
7c
ENDCHAR
STARTCHAR colon
ENCODING 58
SWIDTH 342 0
DWIDTH 5 0
BBX 2 8 2 0
BITMAP
c0
c0
00
00
00
00
c0
c0
ENDCHAR
STARTCHAR semicolon
ENCODING 59
SWIDTH 342 0
DWIDTH 5 0
BBX 3 9 1 -1
BITMAP
60
60
00
00
00
00
60
60
c0
ENDCHAR
STARTCHAR less
ENCODING 60
SWIDTH 548 0
DWIDTH 8 0
BBX 6 5 1 2
BITMAP
1c
70
c0
70
1c
ENDCHAR
STARTCHAR equal
ENCODING 61
SWIDTH 617 0
DWIDTH 9 0
BBX 7 3 1 3
BITMAP
fe
00
fe
ENDCHAR
STARTCHAR greater
ENCODING 62
SWIDTH 548 0
DWIDTH 8 0
BBX 6 5 1 2
BITMAP
e0
38
0c
38
e0
ENDCHAR
STARTCHAR question
ENCODING 63
SWIDTH 617 0
DWIDTH 9 0
BBX 7 11 1 0
BITMAP
7c
c6
c6
06
0c
18
30
30
00
30
30
ENDCHAR
STARTCHAR at
ENCODING 64
SWIDTH 960 0
DWIDTH 14 0
BBX 13 12 0 -1
BITMAP
0f80
38e0
7070
66b0
cd98
d998
db18
db30
cee0
6000
3180
1f00
ENDCHAR
STARTCHAR A
ENCODING 65
SWIDTH 685 0
DWIDTH 10 0
BBX 10 11 0 0
BITMAP
0c00
0c00
1e00
1200
3300
3300
6180
7f80
6180
c0c0
c0c0
ENDCHAR
STARTCHAR B
ENCODING 66
SWIDTH 685 0
DWIDTH 10 0
BBX 8 11 1 0
BITMAP
fe
c7
c3
c3
c6
fc
c6
c3
c3
c7
fe
ENDCHAR
STARTCHAR C
ENCODING 67
SWIDTH 754 0
DWIDTH 11 0
BBX 9 11 1 0
BITMAP
1f00
7b80
6080
c000
c000
c000
c000
c000
6080
7b80
1f00
ENDCHAR
STARTCHAR D
ENCODING 68
SWIDTH 754 0
DWIDTH 11 0
BBX 9 11 1 0
BITMAP
fc00
c700
c300
c180
c180
c180
c180
c180
c300
c700
fc00
ENDCHAR
STARTCHAR E
ENCODING 69
SWIDTH 617 0
DWIDTH 9 0
BBX 7 11 1 0
BITMAP
fe
c0
c0
c0
c0
fe
c0
c0
c0
c0
fe
ENDCHAR
STARTCHAR F
ENCODING 70
SWIDTH 617 0
DWIDTH 9 0
BBX 7 11 1 0
BITMAP
fe
c0
c0
c0
c0
fc
c0
c0
c0
c0
c0
ENDCHAR
STARTCHAR G
ENCODING 71
SWIDTH 754 0
DWIDTH 11 0
BBX 9 11 1 0
BITMAP
1f00
7b80
6080
c000
c000
c780
c180
c180
6180
7b80
1e80
ENDCHAR
STARTCHAR H
ENCODING 72
SWIDTH 685 0
DWIDTH 10 0
BBX 8 11 1 0
BITMAP
c3
c3
c3
c3
c3
ff
c3
c3
c3
c3
c3
ENDCHAR
STARTCHAR I
ENCODING 73
SWIDTH 274 0
DWIDTH 4 0
BBX 2 11 1 0
BITMAP
c0
c0
c0
c0
c0
c0
c0
c0
c0
c0
c0
ENDCHAR
STARTCHAR J
ENCODING 74
SWIDTH 548 0
DWIDTH 8 0
BBX 7 11 0 0
BITMAP
06
06
06
06
06
06
06
c6
c6
ee
7c
ENDCHAR
STARTCHAR K
ENCODING 75
SWIDTH 685 0
DWIDTH 10 0
BBX 9 11 1 0
BITMAP
c300
c600
cc00
d800
f000
f000
d800
cc00
c600
c300
c180
ENDCHAR
STARTCHAR L
ENCODING 76
SWIDTH 548 0
DWIDTH 8 0
BBX 7 11 1 0
BITMAP
c0
c0
c0
c0
c0
c0
c0
c0
c0
c0
fe
ENDCHAR
STARTCHAR M
ENCODING 77
SWIDTH 891 0
DWIDTH 13 0
BBX 11 11 1 0
BITMAP
c060
c060
e0e0
e0e0
f1e0
d160
d160
db60
ca60
ce60
c460
ENDCHAR
STARTCHAR N
ENCODING 78
SWIDTH 754 0
DWIDTH 11 0
BBX 9 11 1 0
BITMAP
c180
e180
e180
d180
d980
c980
cd80
c580
c380
c380
c180
ENDCHAR
STARTCHAR O
ENCODING 79
SWIDTH 822 0
DWIDTH 12 0
BBX 10 11 1 0
BITMAP
1e00
7380
6180
c0c0
c0c0
c0c0
c0c0
c0c0
6180
7380
1e00
ENDCHAR
STARTCHAR P
ENCODING 80
SWIDTH 685 0
DWIDTH 10 0
BBX 8 11 1 0
BITMAP
fe
c7
c3
c3
c7
fe
c0
c0
c0
c0
c0
ENDCHAR
STARTCHAR Q
ENCODING 81
SWIDTH 822 0
DWIDTH 12 0
BBX 10 11 1 0
BITMAP
1e00
7380
6180
c0c0
c0c0
c0c0
c0c0
c6c0
6380
7380
1ec0
ENDCHAR
STARTCHAR R
ENCODING 82
SWIDTH 754 0
DWIDTH 11 0
BBX 9 11 1 0
BITMAP
fe00
c700
c300
c300
c700
fe00
c300
c300
c300
c300
c180
ENDCHAR
STARTCHAR S
ENCODING 83
SWIDTH 685 0
DWIDTH 10 0
BBX 8 11 1 0
BITMAP
7e
e7
c3
e0
78
1e
07
03
c3
ee
7c
ENDCHAR
STARTCHAR T
ENCODING 84
SWIDTH 548 0
DWIDTH 8 0
BBX 8 11 0 0
BITMAP
ff
18
18
18
18
18
18
18
18
18
18
ENDCHAR
STARTCHAR U
ENCODING 85
SWIDTH 754 0
DWIDTH 11 0
BBX 9 11 1 0
BITMAP
c180
c180
c180
c180
c180
c180
c180
c180
c180
6300
3e00
ENDCHAR
STARTCHAR V
ENCODING 86
SWIDTH 685 0
DWIDTH 10 0
BBX 10 11 0 0
BITMAP
c0c0
c0c0
6180
6180
7380
3300
3300
1e00
1e00
0c00
0c00
ENDCHAR
STARTCHAR W
ENCODING 87
SWIDTH 960 0
DWIDTH 14 0
BBX 14 11 0 0
BITMAP
c30c
c30c
c30c
6798
6498
6498
6cd8
2cd0
3870
1860
1860
ENDCHAR
STARTCHAR X
ENCODING 88
SWIDTH 617 0
DWIDTH 9 0
BBX 9 11 0 0
BITMAP
c180
c180
6300
3600
1c00
1c00
3600
6300
6300
c180
c180
ENDCHAR
STARTCHAR Y
ENCODING 89
SWIDTH 685 0
DWIDTH 10 0
BBX 10 11 0 0
BITMAP
c0c0
6180
6180
3300
3300
1e00
1e00
0c00
0c00
0c00
0c00
ENDCHAR
STARTCHAR Z
ENCODING 90
SWIDTH 617 0
DWIDTH 9 0
BBX 8 11 0 0
BITMAP
ff
03
06
0c
1c
18
30
70
60
c0
ff
ENDCHAR
STARTCHAR bracketleft
ENCODING 91
SWIDTH 342 0
DWIDTH 5 0
BBX 4 14 1 -3
BITMAP
f0
c0
c0
c0
c0
c0
c0
c0
c0
c0
c0
c0
c0
f0
ENDCHAR
STARTCHAR backslash
ENCODING 92
SWIDTH 274 0
DWIDTH 4 0
BBX 4 11 0 0
BITMAP
c0
c0
c0
40
60
60
60
20
30
30
30
ENDCHAR
STARTCHAR bracketright
ENCODING 93
SWIDTH 342 0
DWIDTH 5 0
BBX 4 14 0 -3
BITMAP
f0
30
30
30
30
30
30
30
30
30
30
30
30
f0
ENDCHAR
STARTCHAR asciicircum
ENCODING 94
SWIDTH 548 0
DWIDTH 8 0
BBX 6 4 1 7
BITMAP
30
78
cc
84
ENDCHAR
STARTCHAR underscore
ENCODING 95
SWIDTH 548 0
DWIDTH 8 0
BBX 8 1 0 -3
BITMAP
ff
ENDCHAR
STARTCHAR grave
ENCODING 96
SWIDTH 342 0
DWIDTH 5 0
BBX 3 3 1 8
BITMAP
60
c0
e0
ENDCHAR
STARTCHAR a
ENCODING 97
SWIDTH 548 0
DWIDTH 8 0
BBX 7 8 1 0
BITMAP
78
cc
0c
7c
cc
cc
fc
76
ENDCHAR
STARTCHAR b
ENCODING 98
SWIDTH 617 0
DWIDTH 9 0
BBX 7 11 1 0
BITMAP
c0
c0
c0
f8
ec
c6
c6
c6
c6
ec
d8
ENDCHAR
STARTCHAR c
ENCODING 99
SWIDTH 548 0
DWIDTH 8 0
BBX 6 8 1 0
BITMAP
38
7c
c4
c0
c0
c4
7c
38
ENDCHAR
STARTCHAR d
ENCODING 100
SWIDTH 617 0
DWIDTH 9 0
BBX 7 11 1 0
BITMAP
06
06
06
3e
6e
c6
c6
c6
c6
6e
36
ENDCHAR
STARTCHAR e
ENCODING 101
SWIDTH 548 0
DWIDTH 8 0
BBX 6 8 1 0
BITMAP
78
cc
cc
fc
c0
c0
ec
78
ENDCHAR
STARTCHAR f
ENCODING 102
SWIDTH 274 0
DWIDTH 4 0
BBX 5 11 0 0
BITMAP
38
60
60
f0
60
60
60
60
60
60
60
ENDCHAR
STARTCHAR g
ENCODING 103
SWIDTH 617 0
DWIDTH 9 0
BBX 7 11 1 -3
BITMAP
3a
6e
c6
c6
c6
c6
6e
3e
06
ce
7c
ENDCHAR
STARTCHAR h
ENCODING 104
SWIDTH 617 0
DWIDTH 9 0
BBX 7 11 1 0
BITMAP
c0
c0
c0
dc
ee
c6
c6
c6
c6
c6
c6
ENDCHAR
STARTCHAR i
ENCODING 105
SWIDTH 274 0
DWIDTH 4 0
BBX 2 11 1 0
BITMAP
c0
c0
00
c0
c0
c0
c0
c0
c0
c0
c0
ENDCHAR
STARTCHAR j
ENCODING 106
SWIDTH 274 0
DWIDTH 4 0
BBX 3 14 0 -3
BITMAP
60
60
00
60
60
60
60
60
60
60
60
60
e0
c0
ENDCHAR
STARTCHAR k
ENCODING 107
SWIDTH 548 0
DWIDTH 8 0
BBX 6 11 1 0
BITMAP
c0
c0
c0
cc
d8
f0
f0
d8
d8
cc
cc
ENDCHAR
STARTCHAR l
ENCODING 108
SWIDTH 274 0
DWIDTH 4 0
BBX 2 11 1 0
BITMAP
c0
c0
c0
c0
c0
c0
c0
c0
c0
c0
c0
ENDCHAR
STARTCHAR m
ENCODING 109
SWIDTH 822 0
DWIDTH 12 0
BBX 10 8 1 0
BITMAP
db80
eec0
ccc0
ccc0
ccc0
ccc0
ccc0
ccc0
ENDCHAR
STARTCHAR n
ENCODING 110
SWIDTH 617 0
DWIDTH 9 0
BBX 7 8 1 0
BITMAP
dc
ee
c6
c6
c6
c6
c6
c6
ENDCHAR
STARTCHAR o
ENCODING 111
SWIDTH 617 0
DWIDTH 9 0
BBX 7 8 1 0
BITMAP
38
6c
c6
c6
c6
c6
6c
38
ENDCHAR
STARTCHAR p
ENCODING 112
SWIDTH 617 0
DWIDTH 9 0
BBX 7 11 1 -3
BITMAP
d8
ec
c6
c6
c6
c6
ec
f8
c0
c0
c0
ENDCHAR
STARTCHAR q
ENCODING 113
SWIDTH 617 0
DWIDTH 9 0
BBX 7 11 1 -3
BITMAP
36
6e
c6
c6
c6
c6
6e
3e
06
06
06
ENDCHAR
STARTCHAR r
ENCODING 114
SWIDTH 411 0
DWIDTH 6 0
BBX 5 8 1 0
BITMAP
d8
f8
c0
c0
c0
c0
c0
c0
ENDCHAR
STARTCHAR s
ENCODING 115
SWIDTH 548 0
DWIDTH 8 0
BBX 6 8 1 0
BITMAP
78
ec
c0
78
1c
0c
ec
78
ENDCHAR
STARTCHAR t
ENCODING 116
SWIDTH 342 0
DWIDTH 5 0
BBX 5 10 0 0
BITMAP
60
60
f8
60
60
60
60
60
68
30
ENDCHAR
STARTCHAR u
ENCODING 117
SWIDTH 617 0
DWIDTH 9 0
BBX 7 8 1 0
BITMAP
c6
c6
c6
c6
c6
c6
ee
76
ENDCHAR
STARTCHAR v
ENCODING 118
SWIDTH 548 0
DWIDTH 8 0
BBX 8 8 0 0
BITMAP
c3
c3
66
66
24
3c
18
18
ENDCHAR
STARTCHAR w
ENCODING 119
SWIDTH 685 0
DWIDTH 10 0
BBX 10 8 0 0
BITMAP
ccc0
ccc0
ccc0
6d80
6d80
3300
3300
3300
ENDCHAR
STARTCHAR x
ENCODING 120
SWIDTH 480 0
DWIDTH 7 0
BBX 7 8 0 0
BITMAP
c6
c6
6c
38
38
6c
c6
c6
ENDCHAR
STARTCHAR y
ENCODING 121
SWIDTH 548 0
DWIDTH 8 0
BBX 8 11 0 -3
BITMAP
c3
c3
66
66
24
3c
18
18
18
30
70
ENDCHAR
STARTCHAR z
ENCODING 122
SWIDTH 411 0
DWIDTH 6 0
BBX 6 8 0 0
BITMAP
fc
0c
18
30
30
60
c0
fc
ENDCHAR
STARTCHAR braceleft
ENCODING 123
SWIDTH 411 0
DWIDTH 6 0
BBX 5 14 0 -3
BITMAP
18
30
30
30
30
60
c0
60
30
30
30
30
30
18
ENDCHAR
STARTCHAR bar
ENCODING 124
SWIDTH 274 0
DWIDTH 4 0
BBX 2 14 1 -3
BITMAP
c0
c0
c0
c0
c0
c0
c0
c0
c0
c0
c0
c0
c0
c0
ENDCHAR
STARTCHAR braceright
ENCODING 125
SWIDTH 411 0
DWIDTH 6 0
BBX 5 14 1 -3
BITMAP
c0
60
60
60
60
30
18
30
60
60
60
60
60
c0
ENDCHAR
STARTCHAR asciitilde
ENCODING 126
SWIDTH 617 0
DWIDTH 9 0
BBX 7 3 1 3
BITMAP
72
de
8c
ENDCHAR
STARTCHAR nobreakspace
ENCODING 160
SWIDTH 274 0
DWIDTH 4 0
BBX 1 1 0 0
BITMAP
00
ENDCHAR
STARTCHAR exclamdown
ENCODING 161
SWIDTH 274 0
DWIDTH 4 0
BBX 2 11 1 -3
BITMAP
00
00
00
00
00
00
00
00
00
00
00
ENDCHAR
STARTCHAR cent
ENCODING 162
SWIDTH 548 0
DWIDTH 8 0
BBX 7 10 0 -1
BITMAP
00
00
00
00
00
00
00
00
00
00
ENDCHAR
STARTCHAR sterling
ENCODING 163
SWIDTH 548 0
DWIDTH 8 0
BBX 8 10 0 0
BITMAP
00
00
00
00
00
00
00
00
00
00
ENDCHAR
STARTCHAR currency
ENCODING 164
SWIDTH 548 0
DWIDTH 8 0
BBX 7 6 0 2
BITMAP
00
00
c0
c0
00
40
ENDCHAR
STARTCHAR yen
ENCODING 165
SWIDTH 617 0
DWIDTH 9 0
BBX 8 10 0 0
BITMAP
40
c0
c0
c0
c0
c0
c0
04
3c
6e
ENDCHAR
STARTCHAR brokenbar
ENCODING 166
SWIDTH 274 0
DWIDTH 4 0
BBX 2 13 1 -2
BITMAP
c0
c0
c0
c0
40
40
40
00
40
40
00
c0
00
ENDCHAR
STARTCHAR section
ENCODING 167
SWIDTH 548 0
DWIDTH 8 0
BBX 6 14 1 -3
BITMAP
30
60
f8
dc
c4
7c
6c
6c
7c
c4
c0
c0
64
64
ENDCHAR
STARTCHAR diaeresis
ENCODING 168
SWIDTH 342 0
DWIDTH 5 0
BBX 5 2 0 9
BITMAP
38
78
ENDCHAR
STARTCHAR copyright
ENCODING 169
SWIDTH 822 0
DWIDTH 12 0
BBX 10 10 1 0
BITMAP
1840
1800
c0c0
c0c0
c000
0000
c0c0
c0c0
c040
ccc0
ENDCHAR
STARTCHAR ordfeminine
ENCODING 170
SWIDTH 411 0
DWIDTH 6 0
BBX 5 7 0 4
BITMAP
e0
78
d8
c8
c8
e8
78
ENDCHAR
STARTCHAR guillemotleft
ENCODING 171
SWIDTH 617 0
DWIDTH 9 0
BBX 7 5 1 2
BITMAP
1c
cc
cc
78
d8
ENDCHAR
STARTCHAR notsign
ENCODING 172
SWIDTH 617 0
DWIDTH 9 0
BBX 7 4 1 2
BITMAP
d8
1e
00
60
ENDCHAR
STARTCHAR hyphen
ENCODING 173
SWIDTH 342 0
DWIDTH 5 0
BBX 5 1 0 4
BITMAP
80
ENDCHAR
STARTCHAR registered
ENCODING 174
SWIDTH 822 0
DWIDTH 12 0
BBX 10 10 1 0
BITMAP
4c80
9240
9040
9040
9240
4c80
6180
1e00
7080
70c0
ENDCHAR
STARTCHAR macron
ENCODING 175
SWIDTH 342 0
DWIDTH 5 0
BBX 5 1 0 10
BITMAP
f8
ENDCHAR
STARTCHAR degree
ENCODING 176
SWIDTH 411 0
DWIDTH 6 0
BBX 4 4 1 6
BITMAP
00
f0
30
60
ENDCHAR
STARTCHAR plusminus
ENCODING 177
SWIDTH 617 0
DWIDTH 9 0
BBX 8 9 0 0
BITMAP
d8
6c
36
fe
02
02
02
f8
1e
ENDCHAR
STARTCHAR twosuperior
ENCODING 178
SWIDTH 342 0
DWIDTH 5 0
BBX 4 6 0 4
BITMAP
00
60
80
50
80
90
ENDCHAR
STARTCHAR threesuperior
ENCODING 179
SWIDTH 342 0
DWIDTH 5 0
BBX 4 6 0 4
BITMAP
40
90
40
90
40
90
ENDCHAR
STARTCHAR acute
ENCODING 180
SWIDTH 342 0
DWIDTH 5 0
BBX 3 2 1 9
BITMAP
40
40
ENDCHAR
STARTCHAR mu
ENCODING 181
SWIDTH 617 0
DWIDTH 9 0
BBX 7 11 1 -3
BITMAP
80
60
80
1e
00
f8
60
90
90
60
18
ENDCHAR
STARTCHAR paragraph
ENCODING 182
SWIDTH 548 0
DWIDTH 8 0
BBX 8 14 0 -3
BITMAP
18
18
ff
18
18
18
00
ff
60
b0
30
60
c0
f0
ENDCHAR
STARTCHAR periodcentered
ENCODING 183
SWIDTH 274 0
DWIDTH 4 0
BBX 2 2 1 3
BITMAP
40
80
ENDCHAR
STARTCHAR cedilla
ENCODING 184
SWIDTH 342 0
DWIDTH 5 0
BBX 5 3 0 -3
BITMAP
60
30
b0
ENDCHAR
STARTCHAR onesuperior
ENCODING 185
SWIDTH 274 0
DWIDTH 4 0
BBX 3 6 0 4
BITMAP
e0
60
c0
c0
c0
c0
ENDCHAR
STARTCHAR masculine
ENCODING 186
SWIDTH 411 0
DWIDTH 6 0
BBX 5 7 0 4
BITMAP
c0
c0
c0
e8
f0
c0
c0
ENDCHAR
STARTCHAR guillemotright
ENCODING 187
SWIDTH 617 0
DWIDTH 9 0
BBX 7 5 1 2
BITMAP
c0
3e
7a
fa
fa
ENDCHAR
STARTCHAR onequarter
ENCODING 188
SWIDTH 822 0
DWIDTH 12 0
BBX 12 10 0 0
BITMAP
fa70
3a00
0a00
0a00
0a00
c0c0
18d0
7060
e060
6060
ENDCHAR
STARTCHAR onehalf
ENCODING 189
SWIDTH 822 0
DWIDTH 12 0
BBX 11 10 0 0
BITMAP
6060
d8c0
d860
00e0
d860
3660
d860
80e0
8060
0060
ENDCHAR
STARTCHAR threequarters
ENCODING 190
SWIDTH 822 0
DWIDTH 12 0
BBX 12 10 0 0
BITMAP
0060
2060
6000
e000
6010
f010
6060
80e0
8060
0060
ENDCHAR
STARTCHAR questiondown
ENCODING 191
SWIDTH 617 0
DWIDTH 9 0
BBX 7 11 1 -3
BITMAP
00
66
c0
66
60
0c
60
0c
c0
18
80
ENDCHAR
STARTCHAR Agrave
ENCODING 192
SWIDTH 685 0
DWIDTH 10 0
BBX 10 14 0 0
BITMAP
19c0
6180
b180
6300
3300
b600
e640
0cc0
0d40
19c0
1840
1800
0000
1800
ENDCHAR
STARTCHAR Aacute
ENCODING 193
SWIDTH 685 0
DWIDTH 10 0
BBX 10 14 0 0
BITMAP
60c0
c6c0
7c00
0000
0000
0000
0000
0000
0000
0000
0000
0040
8040
8040
ENDCHAR
STARTCHAR Acircumflex
ENCODING 194
SWIDTH 685 0
DWIDTH 10 0
BBX 10 14 0 0
BITMAP
80c0
c0c0
c000
0000
0000
0000
0000
0000
0000
0000
0000
0040
8040
8040
ENDCHAR
STARTCHAR Atilde
ENCODING 195
SWIDTH 685 0
DWIDTH 10 0
BBX 10 14 0 0
BITMAP
80c0
c0c0
c000
0000
0000
0000
0000
0000
0000
0000
0000
0040
8040
8040
ENDCHAR
STARTCHAR Adiaeresis
ENCODING 196
SWIDTH 685 0
DWIDTH 10 0
BBX 10 14 0 0
BITMAP
80c0
c0c0
c000
0000
0000
0000
0000
0000
0000
0000
0000
0040
8040
8040
ENDCHAR
STARTCHAR Aring
ENCODING 197
SWIDTH 685 0
DWIDTH 10 0
BBX 10 14 0 0
BITMAP
80c0
c0c0
c000
0000
0000
0000
0000
0000
0000
0000
0000
0040
8040
8040
ENDCHAR
STARTCHAR AE
ENCODING 198
SWIDTH 1028 0
DWIDTH 15 0
BBX 14 11 0 0
BITMAP
80c0
c0c0
c01c
0030
001c
000c
000c
001c
0010
0030
0030
ENDCHAR
STARTCHAR Ccedilla
ENCODING 199
SWIDTH 754 0
DWIDTH 11 0
BBX 9 14 1 -3
BITMAP
0000
8000
8000
8080
c080
c000
fc00
0000
0000
0000
0000
f800
0000
0000
ENDCHAR
STARTCHAR Egrave
ENCODING 200
SWIDTH 617 0
DWIDTH 9 0
BBX 7 14 1 0
BITMAP
00
c2
00
c2
fc
1e
00
7a
80
60
80
c0
00
c0
ENDCHAR
STARTCHAR Eacute
ENCODING 201
SWIDTH 617 0
DWIDTH 9 0
BBX 7 14 1 0
BITMAP
00
c0
00
c0
00
c0
00
60
80
7a
80
1e
00
04
ENDCHAR
STARTCHAR Ecircumflex
ENCODING 202
SWIDTH 617 0
DWIDTH 9 0
BBX 7 14 1 0
BITMAP
00
36
00
1c
00
30
18
00
fe
c0
c0
c0
c0
fe
ENDCHAR
STARTCHAR Ediaeresis
ENCODING 203
SWIDTH 617 0
DWIDTH 9 0
BBX 7 14 1 0
BITMAP
c0
c0
c0
c0
fe
0c
18
00
fe
c0
c0
c0
c0
fe
ENDCHAR
STARTCHAR Igrave
ENCODING 204
SWIDTH 274 0
DWIDTH 4 0
BBX 3 14 0 0
BITMAP
c0
c0
c0
c0
e0
20
60
00
e0
c0
c0
c0
c0
e0
ENDCHAR
STARTCHAR Iacute
ENCODING 205
SWIDTH 274 0
DWIDTH 4 0
BBX 3 14 1 0
BITMAP
c0
c0
c0
c0
e0
60
60
00
e0
c0
c0
c0
c0
e0
ENDCHAR
STARTCHAR Icircumflex
ENCODING 206
SWIDTH 274 0
DWIDTH 4 0
BBX 5 14 0 0
BITMAP
c0
c0
c0
c0
f8
c0
60
00
60
60
60
60
60
60
ENDCHAR
STARTCHAR Idiaeresis
ENCODING 207
SWIDTH 274 0
DWIDTH 4 0
BBX 5 14 0 0
BITMAP
60
60
60
60
60
60
c0
00
c0
c0
c0
c0
c0
c0
ENDCHAR
STARTCHAR ETH
ENCODING 208
SWIDTH 754 0
DWIDTH 11 0
BBX 10 11 0 0
BITMAP
c0c0
c0c0
c040
d800
6040
6040
6040
6040
6040
60c0
d800
ENDCHAR
STARTCHAR Ntilde
ENCODING 209
SWIDTH 754 0
DWIDTH 11 0
BBX 9 14 1 0
BITMAP
6000
6000
6000
6000
6000
6000
0000
8000
8000
c000
c080
c000
c000
c000
ENDCHAR
STARTCHAR Ograve
ENCODING 210
SWIDTH 822 0
DWIDTH 12 0
BBX 10 14 1 0
BITMAP
8040
8040
0000
0000
0000
00c0
80c0
80c0
80c0
80c0
80c0
80c0
80c0
80c0
ENDCHAR
STARTCHAR Oacute
ENCODING 211
SWIDTH 822 0
DWIDTH 12 0
BBX 10 14 1 0
BITMAP
80c0
80c0
8000
0000
0000
0000
0040
8040
80c0
c0c0
c0c0
c0c0
c0c0
c040
ENDCHAR
STARTCHAR Ocircumflex
ENCODING 212
SWIDTH 822 0
DWIDTH 12 0
BBX 10 14 1 0
BITMAP
8040
8000
0000
0000
0000
0000
0040
8040
80c0
c0c0
c0c0
c0c0
c0c0
c040
ENDCHAR
STARTCHAR Otilde
ENCODING 213
SWIDTH 822 0
DWIDTH 12 0
BBX 10 14 1 0
BITMAP
8040
8000
0000
0000
0000
0000
0040
8040
80c0
c0c0
c0c0
c0c0
c0c0
c040
ENDCHAR
STARTCHAR Odiaeresis
ENCODING 214
SWIDTH 822 0
DWIDTH 12 0
BBX 10 14 1 0
BITMAP
8040
8000
0000
0000
0000
0000
0040
8040
80c0
c0c0
c0c0
c0c0
c0c0
c040
ENDCHAR
STARTCHAR multiply
ENCODING 215
SWIDTH 617 0
DWIDTH 9 0
BBX 8 7 0 1
BITMAP
80
73
80
1e
00
1b
00
ENDCHAR
STARTCHAR Ooblique
ENCODING 216
SWIDTH 822 0
DWIDTH 12 0
BBX 12 11 0 0
BITMAP
1b00
0000
1e00
7380
6180
c0c0
c0c0
c0c0
c0c0
c0c0
6180
ENDCHAR
STARTCHAR Ugrave
ENCODING 217
SWIDTH 754 0
DWIDTH 11 0
BBX 9 14 1 0
BITMAP
7380
1e00
c300
3c00
3c00
c300
3000
e000
c000
e000
6000
6000
6000
6000
ENDCHAR
STARTCHAR Uacute
ENCODING 218
SWIDTH 754 0
DWIDTH 11 0
BBX 9 14 1 0
BITMAP
c000
c080
0000
0000
0000
0080
8080
8080
8080
8080
8080
8080
8080
8080
ENDCHAR
STARTCHAR Ucircumflex
ENCODING 219
SWIDTH 754 0
DWIDTH 11 0
BBX 9 14 1 0
BITMAP
8000
0000
0000
0000
0000
0080
8080
8080
8080
8080
8080
8080
8080
8080
ENDCHAR
STARTCHAR Udiaeresis
ENCODING 220
SWIDTH 754 0
DWIDTH 11 0
BBX 9 14 1 0
BITMAP
8000
0000
0000
0000
0000
0080
8080
8080
8080
8080
8080
8080
8080
8080
ENDCHAR
STARTCHAR Yacute
ENCODING 221
SWIDTH 685 0
DWIDTH 10 0
BBX 10 14 0 0
BITMAP
8040
0000
0000
0000
0000
00c0
80c0
80c0
80c0
80c0
80c0
80c0
80c0
80c0
ENDCHAR
STARTCHAR THORN
ENCODING 222
SWIDTH 685 0
DWIDTH 10 0
BBX 8 11 1 0
BITMAP
80
63
00
3e
00
06
00
0c
00
00
00
ENDCHAR
STARTCHAR ssharp
ENCODING 223
SWIDTH 548 0
DWIDTH 8 0
BBX 6 11 1 0
BITMAP
c0
c0
60
80
60
80
30
00
30
00
1c
ENDCHAR
STARTCHAR agrave
ENCODING 224
SWIDTH 548 0
DWIDTH 8 0
BBX 7 11 1 0
BITMAP
00
1e
00
0c
00
0c
00
0c
00
0c
00
ENDCHAR
STARTCHAR aacute
ENCODING 225
SWIDTH 548 0
DWIDTH 8 0
BBX 7 11 1 0
BITMAP
c0
c0
fe
c6
c2
c2
c6
fe
c0
c0
c0
ENDCHAR
STARTCHAR acircumflex
ENCODING 226
SWIDTH 548 0
DWIDTH 8 0
BBX 7 11 1 0
BITMAP
78
cc
cc
cc
d8
d8
cc
cc
cc
cc
d8
ENDCHAR
STARTCHAR atilde
ENCODING 227
SWIDTH 548 0
DWIDTH 8 0
BBX 7 11 1 0
BITMAP
30
18
00
78
cc
0c
7c
cc
cc
fc
76
ENDCHAR
STARTCHAR adiaeresis
ENCODING 228
SWIDTH 548 0
DWIDTH 8 0
BBX 7 11 1 0
BITMAP
18
30
00
78
cc
0c
7c
cc
cc
fc
76
ENDCHAR
STARTCHAR aring
ENCODING 229
SWIDTH 548 0
DWIDTH 8 0
BBX 7 11 1 0
BITMAP
38
6c
00
78
cc
0c
7c
cc
cc
fc
76
ENDCHAR
STARTCHAR ae
ENCODING 230
SWIDTH 891 0
DWIDTH 13 0
BBX 11 8 1 0
BITMAP
3440
0060
cc00
7cc0
cce0
7660
6c00
78c0
ENDCHAR
STARTCHAR ccedilla
ENCODING 231
SWIDTH 617 0
DWIDTH 9 0
BBX 7 11 1 -3
BITMAP
0c
7c
cc
cc
fc
76
38
6c
38
78
cc
ENDCHAR
STARTCHAR egrave
ENCODING 232
SWIDTH 548 0
DWIDTH 8 0
BBX 6 11 1 0
BITMAP
0c
7c
cc
cc
fc
74
78
c0
cc
60
0c
ENDCHAR
STARTCHAR eacute
ENCODING 233
SWIDTH 548 0
DWIDTH 8 0
BBX 6 11 1 0
BITMAP
60
7c
e0
cc
00
cc
00
fc
60
74
c0
ENDCHAR
STARTCHAR ecircumflex
ENCODING 234
SWIDTH 548 0
DWIDTH 8 0
BBX 6 11 1 0
BITMAP
3c
74
c4
c0
c0
c4
74
3c
08
6c
38
ENDCHAR
STARTCHAR ediaeresis
ENCODING 235
SWIDTH 548 0
DWIDTH 8 0
BBX 6 11 1 0
BITMAP
60
30
00
78
ec
cc
fc
c0
c0
ec
78
ENDCHAR
STARTCHAR igrave
ENCODING 236
SWIDTH 274 0
DWIDTH 4 0
BBX 3 11 0 0
BITMAP
00
20
00
60
e0
c0
e0
c0
c0
e0
60
ENDCHAR
STARTCHAR iacute
ENCODING 237
SWIDTH 274 0
DWIDTH 4 0
BBX 3 11 1 0
BITMAP
20
60
00
60
e0
c0
e0
c0
c0
e0
60
ENDCHAR
STARTCHAR icircumflex
ENCODING 238
SWIDTH 274 0
DWIDTH 4 0
BBX 5 11 0 0
BITMAP
68
68
00
78
e8
c8
f8
c0
c0
e8
78
ENDCHAR
STARTCHAR idiaeresis
ENCODING 239
SWIDTH 274 0
DWIDTH 4 0
BBX 5 11 0 0
BITMAP
c0
60
00
60
60
60
60
60
60
60
60
ENDCHAR
STARTCHAR eth
ENCODING 240
SWIDTH 617 0
DWIDTH 9 0
BBX 7 11 1 0
BITMAP
60
c0
00
c0
c0
c0
c0
c0
c0
c0
c0
ENDCHAR
STARTCHAR ntilde
ENCODING 241
SWIDTH 617 0
DWIDTH 9 0
BBX 7 11 1 0
BITMAP
70
d8
00
60
60
60
60
60
60
60
60
ENDCHAR
STARTCHAR ograve
ENCODING 242
SWIDTH 617 0
DWIDTH 9 0
BBX 7 11 1 0
BITMAP
d8
d8
00
60
60
60
60
60
60
60
60
ENDCHAR
STARTCHAR oacute
ENCODING 243
SWIDTH 617 0
DWIDTH 9 0
BBX 7 11 1 0
BITMAP
6c
38
48
3c
6c
c6
c6
c6
c6
6c
38
ENDCHAR
STARTCHAR ocircumflex
ENCODING 244
SWIDTH 617 0
DWIDTH 9 0
BBX 7 11 1 0
BITMAP
34
58
00
dc
ee
c6
c6
c6
c6
c6
c6
ENDCHAR
STARTCHAR otilde
ENCODING 245
SWIDTH 617 0
DWIDTH 9 0
BBX 7 11 1 0
BITMAP
30
18
00
38
6c
c6
c6
c6
c6
6c
38
ENDCHAR
STARTCHAR odiaeresis
ENCODING 246
SWIDTH 617 0
DWIDTH 9 0
BBX 7 11 1 0
BITMAP
0c
18
00
38
6c
c6
c6
c6
c6
6c
38
ENDCHAR
STARTCHAR division
ENCODING 247
SWIDTH 617 0
DWIDTH 9 0
BBX 8 7 0 1
BITMAP
38
6c
00
38
6c
c6
c6
ENDCHAR
STARTCHAR oslash
ENCODING 248
SWIDTH 617 0
DWIDTH 9 0
BBX 7 8 1 0
BITMAP
c6
c6
6c
38
34
58
00
38
ENDCHAR
STARTCHAR ugrave
ENCODING 249
SWIDTH 617 0
DWIDTH 9 0
BBX 7 11 1 0
BITMAP
6c
c6
c6
c6
c6
6c
38
6c
6c
00
38
ENDCHAR
STARTCHAR uacute
ENCODING 250
SWIDTH 617 0
DWIDTH 9 0
BBX 7 11 1 0
BITMAP
6c
c6
c6
c6
c6
6c
38
18
18
00
fe
ENDCHAR
STARTCHAR ucircumflex
ENCODING 251
SWIDTH 617 0
DWIDTH 9 0
BBX 7 11 1 0
BITMAP
00
18
18
3a
6c
ce
d6
d6
e6
6c
b8
ENDCHAR
STARTCHAR udiaeresis
ENCODING 252
SWIDTH 617 0
DWIDTH 9 0
BBX 7 11 1 0
BITMAP
30
18
00
c6
c6
c6
c6
c6
c6
ee
76
ENDCHAR
STARTCHAR yacute
ENCODING 253
SWIDTH 548 0
DWIDTH 8 0
BBX 8 14 0 -3
BITMAP
0c
18
00
c6
c6
c6
c6
c6
c6
ee
76
38
6c
00
ENDCHAR
STARTCHAR thorn
ENCODING 254
SWIDTH 617 0
DWIDTH 9 0
BBX 7 14 1 -3
BITMAP
c6
c6
c6
c6
c6
c6
ee
76
6c
6c
00
c6
c6
c6
ENDCHAR
STARTCHAR ydiaeresis
ENCODING 255
SWIDTH 548 0
DWIDTH 8 0
BBX 8 14 0 -3
BITMAP
c6
c6
c6
ee
76
0c
18
00
c3
c3
66
66
24
3c
ENDCHAR
ENDFONT
